# xmcd CD database file
#
# Track frame offsets:
#	150
#	13362
#	25235
#	42086
#	67059
#	81244
#	104337
#	123257
#	136842
#	150537
#	163230
#	176764
#	203199
#	224800
#
# Disc length: 3214 seconds
#
# Revision: 0
# Processed by: cddbd v1.4PL0 Copyright (c) Steve Scherf et al.
# Submitted via: CDex 1.51
#
DISCID=cc0c8c0e
DTITLE=Richie Arndt and The Bluenatics - Vodoo
DYEAR=2003
DGENRE=Blues
TTITLE0=Little brother o'mine
TTITLE1=3 men 1 guitar
TTITLE2=I don't believe in vodoo
TTITLE3=Terraplane blues
TTITLE4=The bad thang
TTITLE5=It's not always the easy way
TTITLE6=How long?
TTITLE7=Get on board, little children
TTITLE8=Big city blues
TTITLE9=Too hot to handle
TTITLE10=Southern fried chicken blues and boogie
TTITLE11=Trouble has taken the crown
TTITLE12=3rd stone form the sun
TTITLE13=Mississippi
EXTD=YEAR: 2003
EXTT0=
EXTT1=
EXTT2=
EXTT3=
EXTT4=
EXTT5=
EXTT6=
EXTT7=
EXTT8=
EXTT9=
EXTT10=
EXTT11=
EXTT12=
EXTT13=
PLAYORDER=
